<?xml version="1.0" encoding="UTF-8" standalone="no"?>
<svg width="500px" height="500px" viewBox="0 0 500 500" version="1.1" xmlns="http://www.w3.org/2000/svg" xmlns:xlink="http://www.w3.org/1999/xlink" xmlns:sketch="http://www.bohemiancoding.com/sketch/ns">
    <!-- Generator: Sketch Beta 3.5.1 (25233) - http://www.bohemiancoding.com/sketch -->
    <title>Rectangle 1</title>
    <desc>Created with Sketch Beta.</desc>
    <defs></defs>
    <g id="Page-1" stroke="none" stroke-width="1" fill="none" fill-rule="evenodd" sketch:type="MSPage">
        <text id="+" sketch:type="MSTextLayer" transform="translate(155.849242, 5.849242) rotate(-315.000000) translate(-155.849242, -5.849242) " font-family="Larsseit" font-size="24" font-weight="normal" sketch:alignment="middle" letter-spacing="1.02127659" fill="#000000">
            <tspan x="149.674604" y="14.3492424">+</tspan>
        </text>
        <path d="M114.043478,5.20730444 L110.317478,5.20730444 C109.87713,5.20730444 109.38513,5.80450667 109.38513,6.60337556 L109.38513,9.37669556 L114.043478,9.37669556 L114.043478,13.3293622 L109.38513,13.3293622 L109.38513,25.1997311 L104.987391,25.1997311 L104.987391,13.3293622 L101,13.3293622 L101,9.37669556 L104.987391,9.37669556 L104.987391,7.05 C104.987391,3.71389556 107.233739,1 110.317478,1 L114.043478,1 L114.043478,5.20730444 L114.043478,5.20730444 Z" id="Shape" fill="#FFFFFF" sketch:type="MSShapeGroup"></path>
        <path d="M57.54,8.89 L57.54,4.89 L59.27,4.89 L57.04,2.72 L54.81,4.89 L56.54,4.89 L56.54,8.89 L54.81,8.89 L57.04,11.07 L59.27,8.89 L57.54,8.89 Z M51.04,12.2 L63.04,12.2 L63.04,13 L51.04,13 L51.04,12.2 Z M51.04,1 L63.04,1 L63.04,1.8 L51.04,1.8 L51.04,1 Z" id="Rectangle-path" opacity="0.6" fill="#060100" sketch:type="MSShapeGroup"></path>
        <path d="M11.23,1 L14.04,8 L13.04,8 L12.3,6.15 L9.22,6.15 L8.49,8 L7.49,8 L10.3,1 L11.24,1 L11.23,1 Z M10.75,2.17 L10.62,2.55 L9.52,5.3 L11.97,5.3 L10.86,2.55 L10.75,2.17 Z" id="Shape" opacity="0.6" fill="#000000" sketch:type="MSShapeGroup"></path>
        <path d="M4.78,3.1 L6.72,8 L5.86,8 L5.39,6.8 L3.32,6.8 L2.86,8 L1.97,8 L3.97,3.1 L4.81,3.1 L4.78,3.1 Z M4.35,4.1 L4.26,4.37 L3.58,6.12 L5.14,6.12 L4.44,4.34 L4.35,4.1 Z" id="Shape" opacity="0.6" fill="#000000" sketch:type="MSShapeGroup"></path>
        <path d="M216,1 C207.716309,1 201,7.71630859 201,16 C201,22.628418 205.2975,28.2497559 211.258477,30.2327734 C212.008301,30.3701172 212.282051,29.9068457 212.282051,29.5113379 C212.282051,29.1542676 212.268311,27.9714355 212.260986,26.7189941 C208.089844,27.6253516 207.208184,24.9501953 207.208184,24.9501953 C206.525215,23.2180176 205.542832,22.7565918 205.542832,22.7565918 C204.179619,21.826416 205.64625,21.8447266 205.64625,21.8447266 C207.152285,21.949082 207.945176,23.3901367 207.945176,23.3901367 C209.283691,25.6826172 211.457139,25.0197754 212.31041,24.6352539 C212.446758,23.668457 212.834941,23.0056152 213.262559,22.6320801 C209.932793,22.2530664 206.43,20.9658203 206.43,15.218125 C206.43,13.5793164 207.015029,12.2426758 207.972656,11.1925586 C207.819756,10.8116992 207.303398,9.28550781 208.120957,7.22101563 C208.120957,7.22101563 209.378906,6.81818359 212.246309,8.75910156 C213.441973,8.42494141 214.724648,8.26014648 215.999971,8.25463867 C217.274385,8.26014648 218.557939,8.42675781 219.755479,8.76091797 C222.617432,6.81818359 223.877197,7.22283203 223.877197,7.22283203 C224.69751,9.28916992 224.181152,10.8135156 224.027344,11.1925586 C224.988633,12.2426758 225.569092,13.5793457 225.569092,15.218125 C225.569092,20.9804688 222.060791,22.249375 218.719131,22.6210938 C219.259307,23.0861816 219.737197,23.9980469 219.737197,25.3969727 C219.737197,27.4019922 219.717041,29.0187988 219.717041,29.5131836 C219.717041,29.9123535 219.989854,30.3792578 220.749756,30.2327734 C226.706191,28.2460938 231,22.6247559 231,16 C231,7.71630859 224.283691,1 216,1 L216,1 Z" id="Shape" fill="#FFFFFF" sketch:type="MSShapeGroup"></path>
    </g>
</svg>