<?xml version="1.0" encoding="UTF-8" standalone="no"?>
<svg width="123px" height="24px" viewBox="0 0 123 24" version="1.1" xmlns="http://www.w3.org/2000/svg" xmlns:xlink="http://www.w3.org/1999/xlink">
    <!-- Generator: Sketch 41.1 (35376) - http://www.bohemiancoding.com/sketch -->
    <title>Group 2</title>
    <desc>Created with Sketch.</desc>
    <defs></defs>
    <g id="Page-2" stroke="none" stroke-width="1" fill="none" fill-rule="evenodd">
        <g id="Group-2" transform="translate(0.000000, -2.000000)">
            <text id="𝞫" font-family="CambriaMath, Cambria Math" font-size="13" font-weight="normal" letter-spacing="-0.282608688" fill="#1D30F5">
                <tspan x="114" y="12">𝞫</tspan>
            </text>
            <g id="logo" transform="translate(0.000000, 7.000000)" fill="#000000">
                <g id="Group">
                    <g id="Page-2">
                        <g id="Home-Copy">
                            <g id="Group">
                                <path d="M8.54554217,0.882650602 C6.13614458,0.882650602 4.13228916,1.69373494 2.58168675,3.33975904 C1.03108434,4.98578313 0.243855422,7.0373494 0.243855422,9.54216867 C0.243855422,12.046988 1.03108434,14.0985542 2.58168675,15.7445783 C4.15614458,17.3906024 6.16,18.2016867 8.59325301,18.2016867 C12.6009639,18.2016867 15.1773494,16.1739759 16.1315663,12.6195181 L13.2689157,12.6195181 C12.6009639,14.5040964 11.0503614,15.6968675 8.59325301,15.6968675 C6.94722892,15.6968675 5.6113253,15.1243373 4.58554217,13.9554217 C3.55975904,12.786506 3.05879518,11.3313253 3.05879518,9.54216867 C3.05879518,7.75301205 3.55975904,6.2739759 4.58554217,5.12891566 C5.6113253,3.96 6.92337349,3.38746988 8.54554217,3.38746988 C10.8833735,3.38746988 12.4101205,4.36554217 13.1257831,6.34554217 L16.0838554,6.34554217 C15.153494,2.93421687 12.5293976,0.882650602 8.54554217,0.882650602 L8.54554217,0.882650602 Z" id="C"></path>
                                <path d="M50.4860241,5.55831325 C48.7445783,5.55831325 47.3371084,6.1546988 46.2159036,7.34746988 C45.0946988,8.54024096 44.5460241,10.0431325 44.5460241,11.88 C44.5460241,13.7168675 45.0946988,15.2436145 46.2159036,16.4125301 C47.3371084,17.5814458 48.7684337,18.1539759 50.4860241,18.1539759 C53.253253,18.1539759 55.3763855,16.6510843 55.9727711,13.9077108 L53.4679518,13.9077108 C53.1101205,15.0527711 51.9889157,15.8161446 50.5814458,15.8161446 C49.6033735,15.8161446 48.7684337,15.4344578 48.1243373,14.6949398 C47.480241,13.9554217 47.1701205,13.0012048 47.1701205,11.88 C47.1701205,10.7110843 47.480241,9.75686747 48.1243373,9.0173494 C48.7684337,8.27783133 49.5556627,7.89614458 50.5337349,7.89614458 C51.9650602,7.89614458 53.0624096,8.58795181 53.4679518,9.82843373 L55.9489157,9.82843373 C55.4479518,7.08506024 53.3248193,5.55831325 50.4860241,5.55831325 L50.4860241,5.55831325 Z" id="c"></path>
                                <path d="M19.7814458,7.32361446 C18.6125301,8.49253012 18.04,10.0192771 18.04,11.8561446 C18.04,13.693012 18.6125301,15.219759 19.7814458,16.3886747 C20.9503614,17.5575904 22.4293976,18.1539759 24.2424096,18.1539759 C26.0554217,18.1539759 27.5344578,17.5575904 28.7033735,16.3886747 C29.8722892,15.219759 30.4686747,13.693012 30.4686747,11.8561446 C30.4686747,10.0192771 29.8722892,8.49253012 28.7033735,7.32361446 C27.5344578,6.1546988 26.0554217,5.55831325 24.2424096,5.55831325 C22.4293976,5.55831325 20.9503614,6.1546988 19.7814458,7.32361446 L19.7814458,7.32361446 Z M26.8426506,9.0173494 C27.5106024,9.75686747 27.8445783,10.7110843 27.8445783,11.8561446 C27.8445783,13.0012048 27.5106024,13.9554217 26.8426506,14.6949398 C26.1985542,15.4344578 25.339759,15.8161446 24.2662651,15.8161446 C23.1927711,15.8161446 22.3339759,15.4344578 21.6660241,14.6949398 C20.9980723,13.9554217 20.6640964,13.0012048 20.6640964,11.8561446 C20.6640964,10.7110843 20.9980723,9.75686747 21.6660241,9.0173494 C22.3339759,8.27783133 23.1927711,7.89614458 24.2662651,7.89614458 C25.339759,7.89614458 26.1985542,8.27783133 26.8426506,9.0173494 L26.8426506,9.0173494 Z" id="o"></path>
                                <path d="M59.5404819,7.32361446 C58.3715663,8.49253012 57.7990361,10.0192771 57.7990361,11.8561446 C57.7990361,13.693012 58.3715663,15.219759 59.5404819,16.3886747 C60.7093976,17.5575904 62.1884337,18.1539759 64.0014458,18.1539759 C65.8144578,18.1539759 67.293494,17.5575904 68.4624096,16.3886747 C69.6313253,15.219759 70.2277108,13.693012 70.2277108,11.8561446 C70.2277108,10.0192771 69.6313253,8.49253012 68.4624096,7.32361446 C67.293494,6.1546988 65.8144578,5.55831325 64.0014458,5.55831325 C62.1884337,5.55831325 60.7093976,6.1546988 59.5404819,7.32361446 L59.5404819,7.32361446 Z M66.6016867,9.0173494 C67.2696386,9.75686747 67.6036145,10.7110843 67.6036145,11.8561446 C67.6036145,13.0012048 67.2696386,13.9554217 66.6016867,14.6949398 C65.9575904,15.4344578 65.0987952,15.8161446 64.0253012,15.8161446 C62.9518072,15.8161446 62.093012,15.4344578 61.4250602,14.6949398 C60.7571084,13.9554217 60.4231325,13.0012048 60.4231325,11.8561446 C60.4231325,10.7110843 60.7571084,9.75686747 61.4250602,9.0173494 C62.093012,8.27783133 62.9518072,7.89614458 64.0253012,7.89614458 C65.0987952,7.89614458 65.9575904,8.27783133 66.6016867,9.0173494 L66.6016867,9.0173494 Z" id="o"></path>
                                <path d="M38.5874699,5.55831325 C37.0368675,5.55831325 35.8679518,6.32168675 35.2715663,7.44289157 L35.0807229,5.82072289 L32.8860241,5.82072289 L32.8860241,17.8915663 L35.4146988,17.8915663 L35.4146988,11.4744578 C35.4146988,9.27975904 36.4404819,8.03927711 37.8956627,8.03927711 C39.2077108,8.03927711 39.9472289,8.92192771 39.9472289,10.5679518 L39.9472289,17.8915663 L42.499759,17.8915663 L42.499759,10.066988 C42.499759,7.32361446 41.0922892,5.55831325 38.5874699,5.55831325 L38.5874699,5.55831325 Z" id="n"></path>
                                <path d="M78.7281928,5.70144578 C76.819759,5.70144578 75.626988,6.63180723 75.1737349,7.87228916 L74.9590361,5.82072289 L72.7404819,5.82072289 L72.7404819,17.8915663 L75.2691566,17.8915663 L75.2691566,11.6175904 C75.293012,10.4963855 75.626988,9.63759036 76.3187952,9.06506024 C76.9390361,8.51638554 77.7501205,8.2539759 78.7281928,8.2539759 L78.7281928,5.70144578 Z" id="r"></path>
                                <path d="M89.1371084,0.477108434 L89.1371084,7.32361446 C88.3021687,6.1546988 87.0378313,5.55831325 85.2963855,5.55831325 C83.6503614,5.55831325 82.3144578,6.1546988 81.2409639,7.3713253 C80.1913253,8.56409639 79.666506,10.066988 79.666506,11.8561446 C79.666506,13.6453012 80.1913253,15.1481928 81.2409639,16.3648193 C82.2906024,17.5575904 83.626506,18.1539759 85.2725301,18.1539759 C87.0378313,18.1539759 88.3737349,17.5098795 89.280241,16.1978313 L89.4472289,17.8915663 L91.6657831,17.8915663 L91.6657831,0.477108434 L89.1371084,0.477108434 Z M85.7496386,7.96771084 C86.6561446,7.96771084 87.4433735,8.32554217 88.1351807,9.04120482 C88.826988,9.73301205 89.1609639,10.6633735 89.1609639,11.8322892 L89.1609639,11.9515663 C89.1609639,13.1204819 88.826988,14.0508434 88.1351807,14.7426506 C87.4672289,15.4344578 86.6561446,15.7684337 85.7257831,15.7684337 C83.6980723,15.7684337 82.2906024,14.1701205 82.2906024,11.8561446 C82.2906024,9.5660241 83.7457831,7.96771084 85.7496386,7.96771084 L85.7496386,7.96771084 Z" id="d"></path>
                                <path d="M95.2228916,5.82072289 L95.2228916,17.8915663 L97.7515663,17.8915663 L97.7515663,5.82072289 L95.2228916,5.82072289 Z M96.4872289,0.596385542 C95.6045783,0.596385542 94.8650602,1.28819277 94.8650602,2.21855422 C94.7457831,3.60216867 96.7019277,4.31783133 97.6561446,3.33975904 C98.7057831,2.45710843 97.9185542,0.500963855 96.4872289,0.596385542 L96.4872289,0.596385542 Z" id="i"></path>
                                <path d="M105.409157,5.55831325 C104.049398,5.55831325 102.952048,5.96385542 102.117108,6.75108434 C101.282169,7.53831325 100.828916,8.51638554 100.781205,9.73301205 L103.238313,9.73301205 C103.238313,8.56409639 104.168675,7.82457831 105.409157,7.82457831 C106.721205,7.82457831 107.389157,8.54024096 107.389157,9.99542169 L107.389157,10.5440964 L103.953976,11.1643373 C101.592289,11.6175904 100.423373,12.786506 100.423373,14.7187952 C100.423373,16.8419277 101.854699,18.1539759 104.025542,18.1539759 C105.671566,18.1539759 106.864337,17.5337349 107.58,16.3171084 L107.699277,17.8915663 L109.941687,17.8915663 L109.941687,9.94771084 C109.941687,7.10891566 108.247952,5.55831325 105.409157,5.55831325 L105.409157,5.55831325 Z M107.389157,12.8819277 C107.389157,13.6214458 107.198313,14.2416867 106.816627,14.7903614 C106.315663,15.5775904 105.6,15.9592771 104.621928,15.9592771 C103.572289,15.9592771 102.975904,15.4344578 102.975904,14.5995181 C102.975904,13.8122892 103.476867,13.2874699 104.502651,13.0727711 L107.389157,12.4525301 L107.389157,12.8819277 Z" id="a"></path>
                            </g>
                        </g>
                    </g>
                </g>
            </g>
        </g>
    </g>
</svg>