<?xml version="1.0" encoding="UTF-8" standalone="no"?>
<svg width="166px" height="28px" viewBox="0 0 166 28" version="1.1" xmlns="http://www.w3.org/2000/svg" xmlns:xlink="http://www.w3.org/1999/xlink">
    <!-- Generator: Sketch 39.1 (31720) - http://www.bohemiancoding.com/sketch -->
    <title>Group</title>
    <desc>Created with Sketch.</desc>
    <defs></defs>
    <g id="Page-2" stroke="none" stroke-width="1" fill="none" fill-rule="evenodd">
        <g id="Home-Copy" transform="translate(-397.000000, -243.000000)" fill="#ffffff">
            <g id="Group" transform="translate(397.000000, 243.000000)">
                <path d="M12.896,1.332 C9.26,1.332 6.236,2.556 3.896,5.04 C1.556,7.524 0.368,10.62 0.368,14.4 C0.368,18.18 1.556,21.276 3.896,23.76 C6.272,26.244 9.296,27.468 12.968,27.468 C19.016,27.468 22.904,24.408 24.344,19.044 L20.024,19.044 C19.016,21.888 16.676,23.688 12.968,23.688 C10.484,23.688 8.468,22.824 6.92,21.06 C5.372,19.296 4.616,17.1 4.616,14.4 C4.616,11.7 5.372,9.468 6.92,7.74 C8.468,5.976 10.448,5.112 12.896,5.112 C16.424,5.112 18.728,6.588 19.808,9.576 L24.272,9.576 C22.868,4.428 18.908,1.332 12.896,1.332 L12.896,1.332 Z" id="C"></path>
                <path d="M76.188,8.388 C73.56,8.388 71.436,9.288 69.744,11.088 C68.052,12.888 67.224,15.156 67.224,17.928 C67.224,20.7 68.052,23.004 69.744,24.768 C71.436,26.532 73.596,27.396 76.188,27.396 C80.364,27.396 83.568,25.128 84.468,20.988 L80.688,20.988 C80.148,22.716 78.456,23.868 76.332,23.868 C74.856,23.868 73.596,23.292 72.624,22.176 C71.652,21.06 71.184,19.62 71.184,17.928 C71.184,16.164 71.652,14.724 72.624,13.608 C73.596,12.492 74.784,11.916 76.26,11.916 C78.42,11.916 80.076,12.96 80.688,14.832 L84.432,14.832 C83.676,10.692 80.472,8.388 76.188,8.388 L76.188,8.388 Z" id="c"></path>
                <path d="M29.852,11.052 C28.088,12.816 27.224,15.12 27.224,17.892 C27.224,20.664 28.088,22.968 29.852,24.732 C31.616,26.496 33.848,27.396 36.584,27.396 C39.32,27.396 41.552,26.496 43.316,24.732 C45.08,22.968 45.98,20.664 45.98,17.892 C45.98,15.12 45.08,12.816 43.316,11.052 C41.552,9.288 39.32,8.388 36.584,8.388 C33.848,8.388 31.616,9.288 29.852,11.052 L29.852,11.052 Z M40.508,13.608 C41.516,14.724 42.02,16.164 42.02,17.892 C42.02,19.62 41.516,21.06 40.508,22.176 C39.536,23.292 38.24,23.868 36.62,23.868 C35,23.868 33.704,23.292 32.696,22.176 C31.688,21.06 31.184,19.62 31.184,17.892 C31.184,16.164 31.688,14.724 32.696,13.608 C33.704,12.492 35,11.916 36.62,11.916 C38.24,11.916 39.536,12.492 40.508,13.608 L40.508,13.608 Z" id="o"></path>
                <path d="M89.852,11.052 C88.088,12.816 87.224,15.12 87.224,17.892 C87.224,20.664 88.088,22.968 89.852,24.732 C91.616,26.496 93.848,27.396 96.584,27.396 C99.32,27.396 101.552,26.496 103.316,24.732 C105.08,22.968 105.98,20.664 105.98,17.892 C105.98,15.12 105.08,12.816 103.316,11.052 C101.552,9.288 99.32,8.388 96.584,8.388 C93.848,8.388 91.616,9.288 89.852,11.052 L89.852,11.052 Z M100.508,13.608 C101.516,14.724 102.02,16.164 102.02,17.892 C102.02,19.62 101.516,21.06 100.508,22.176 C99.536,23.292 98.24,23.868 96.62,23.868 C95,23.868 93.704,23.292 92.696,22.176 C91.688,21.06 91.184,19.62 91.184,17.892 C91.184,16.164 91.688,14.724 92.696,13.608 C93.704,12.492 95,11.916 96.62,11.916 C98.24,11.916 99.536,12.492 100.508,13.608 L100.508,13.608 Z" id="o"></path>
                <path d="M58.232,8.388 C55.892,8.388 54.128,9.54 53.228,11.232 L52.94,8.784 L49.628,8.784 L49.628,27 L53.444,27 L53.444,17.316 C53.444,14.004 54.992,12.132 57.188,12.132 C59.168,12.132 60.284,13.464 60.284,15.948 L60.284,27 L64.136,27 L64.136,15.192 C64.136,11.052 62.012,8.388 58.232,8.388 L58.232,8.388 Z" id="n"></path>
                <path d="M118.808,8.604 C115.928,8.604 114.128,10.008 113.444,11.88 L113.12,8.784 L109.772,8.784 L109.772,27 L113.588,27 L113.588,17.532 C113.624,15.84 114.128,14.544 115.172,13.68 C116.108,12.852 117.332,12.456 118.808,12.456 L118.808,8.604 Z" id="r"></path>
                <path d="M134.516,0.72 L134.516,11.052 C133.256,9.288 131.348,8.388 128.72,8.388 C126.236,8.388 124.22,9.288 122.6,11.124 C121.016,12.924 120.224,15.192 120.224,17.892 C120.224,20.592 121.016,22.86 122.6,24.696 C124.184,26.496 126.2,27.396 128.684,27.396 C131.348,27.396 133.364,26.424 134.732,24.444 L134.984,27 L138.332,27 L138.332,0.72 L134.516,0.72 Z M129.404,12.024 C130.772,12.024 131.96,12.564 133.004,13.644 C134.048,14.688 134.552,16.092 134.552,17.856 L134.552,18.036 C134.552,19.8 134.048,21.204 133.004,22.248 C131.996,23.292 130.772,23.796 129.368,23.796 C126.308,23.796 124.184,21.384 124.184,17.892 C124.184,14.436 126.38,12.024 129.404,12.024 L129.404,12.024 Z" id="d"></path>
                <path d="M143.7,8.784 L143.7,27 L147.516,27 L147.516,8.784 L143.7,8.784 Z M145.608,0.9 C144.276,0.9 143.16,1.944 143.16,3.348 C142.98,5.436 145.932,6.516 147.372,5.04 C148.956,3.708 147.768,0.756 145.608,0.9 L145.608,0.9 Z" id="i"></path>
                <path d="M159.072,8.388 C157.02,8.388 155.364,9 154.104,10.188 C152.844,11.376 152.16,12.852 152.088,14.688 L155.796,14.688 C155.796,12.924 157.2,11.808 159.072,11.808 C161.052,11.808 162.06,12.888 162.06,15.084 L162.06,15.912 L156.876,16.848 C153.312,17.532 151.548,19.296 151.548,22.212 C151.548,25.416 153.708,27.396 156.984,27.396 C159.468,27.396 161.268,26.46 162.348,24.624 L162.528,27 L165.912,27 L165.912,15.012 C165.912,10.728 163.356,8.388 159.072,8.388 L159.072,8.388 Z M162.06,19.44 C162.06,20.556 161.772,21.492 161.196,22.32 C160.44,23.508 159.36,24.084 157.884,24.084 C156.3,24.084 155.4,23.292 155.4,22.032 C155.4,20.844 156.156,20.052 157.704,19.728 L162.06,18.792 L162.06,19.44 Z" id="a"></path>
            </g>
        </g>
    </g>
</svg>