<?xml version="1.0" encoding="UTF-8" standalone="no"?>
<svg width="500px" height="500px" viewBox="0 0 500 500" version="1.1" xmlns="http://www.w3.org/2000/svg" xmlns:xlink="http://www.w3.org/1999/xlink" xmlns:sketch="http://www.bohemiancoding.com/sketch/ns">
    <!-- Generator: Sketch Beta 3.5.1 (25233) - http://www.bohemiancoding.com/sketch -->
    <title>Rectangle 1</title>
    <desc>Created with Sketch Beta.</desc>
    <defs></defs>
    <g id="Page-1" stroke="none" stroke-width="1" fill="none" fill-rule="evenodd" sketch:type="MSPage">
        <text id="+" sketch:type="MSTextLayer" transform="translate(155.849242, 5.849242) rotate(-315.000000) translate(-155.849242, -5.849242) " font-family="Larsseit" font-size="24" font-weight="normal" sketch:alignment="middle" letter-spacing="1.02127659" fill="#000000">
            <tspan x="149.674604" y="14.3492424">+</tspan>
        </text>
        <path d="M114.043478,5.20730444 L110.317478,5.20730444 C109.87713,5.20730444 109.38513,5.80450667 109.38513,6.60337556 L109.38513,9.37669556 L114.043478,9.37669556 L114.043478,13.3293622 L109.38513,13.3293622 L109.38513,25.1997311 L104.987391,25.1997311 L104.987391,13.3293622 L101,13.3293622 L101,9.37669556 L104.987391,9.37669556 L104.987391,7.05 C104.987391,3.71389556 107.233739,1 110.317478,1 L114.043478,1 L114.043478,5.20730444 L114.043478,5.20730444 Z" id="Shape" fill="#FFFFFF" sketch:type="MSShapeGroup"></path>
        <path d="M57.54,8.89 L57.54,4.89 L59.27,4.89 L57.04,2.72 L54.81,4.89 L56.54,4.89 L56.54,8.89 L54.81,8.89 L57.04,11.07 L59.27,8.89 L57.54,8.89 Z M51.04,12.2 L63.04,12.2 L63.04,13 L51.04,13 L51.04,12.2 Z M51.04,1 L63.04,1 L63.04,1.8 L51.04,1.8 L51.04,1 Z" id="Rectangle-path" opacity="0.6" fill="#060100" sketch:type="MSShapeGroup"></path>
        <path d="M11.23,1 L14.04,8 L13.04,8 L12.3,6.15 L9.22,6.15 L8.49,8 L7.49,8 L10.3,1 L11.24,1 L11.23,1 Z M10.75,2.17 L10.62,2.55 L9.52,5.3 L11.97,5.3 L10.86,2.55 L10.75,2.17 Z" id="Shape" opacity="0.6" fill="#000000" sketch:type="MSShapeGroup"></path>
        <path d="M4.78,3.1 L6.72,8 L5.86,8 L5.39,6.8 L3.32,6.8 L2.86,8 L1.97,8 L3.97,3.1 L4.81,3.1 L4.78,3.1 Z M4.35,4.1 L4.26,4.37 L3.58,6.12 L5.14,6.12 L4.44,4.34 L4.35,4.1 Z" id="Shape" opacity="0.6" fill="#000000" sketch:type="MSShapeGroup"></path>
    </g>
</svg>