<?xml version="1.0" encoding="UTF-8" standalone="no"?>
<svg width="500px" height="500px" viewBox="0 0 500 500" version="1.1" xmlns="http://www.w3.org/2000/svg" xmlns:xlink="http://www.w3.org/1999/xlink" xmlns:sketch="http://www.bohemiancoding.com/sketch/ns">
    <!-- Generator: Sketch Beta 3.5.1 (25233) - http://www.bohemiancoding.com/sketch -->
    <title>Rectangle 1</title>
    <desc>Created with Sketch Beta.</desc>
    <defs></defs>
    <g id="Page-1" stroke="none" stroke-width="1" fill="none" fill-rule="evenodd" sketch:type="MSPage">
        <text id="+" sketch:type="MSTextLayer" transform="translate(155.849242, 5.849242) rotate(-315.000000) translate(-155.849242, -5.849242) " font-family="Larsseit" font-size="24" font-weight="normal" sketch:alignment="middle" letter-spacing="1.02127659" fill="#000000">
            <tspan x="149.674604" y="14.3492424">+</tspan>
        </text>
        <path d="M114.043478,5.20730444 L110.317478,5.20730444 C109.87713,5.20730444 109.38513,5.80450667 109.38513,6.60337556 L109.38513,9.37669556 L114.043478,9.37669556 L114.043478,13.3293622 L109.38513,13.3293622 L109.38513,25.1997311 L104.987391,25.1997311 L104.987391,13.3293622 L101,13.3293622 L101,9.37669556 L104.987391,9.37669556 L104.987391,7.05 C104.987391,3.71389556 107.233739,1 110.317478,1 L114.043478,1 L114.043478,5.20730444 L114.043478,5.20730444 Z" id="Shape" fill="#FFFFFF" sketch:type="MSShapeGroup"></path>
        <path d="M57.54,8.89 L57.54,4.89 L59.27,4.89 L57.04,2.72 L54.81,4.89 L56.54,4.89 L56.54,8.89 L54.81,8.89 L57.04,11.07 L59.27,8.89 L57.54,8.89 Z M51.04,12.2 L63.04,12.2 L63.04,13 L51.04,13 L51.04,12.2 Z M51.04,1 L63.04,1 L63.04,1.8 L51.04,1.8 L51.04,1 Z" id="Rectangle-path" opacity="0.6" fill="#060100" sketch:type="MSShapeGroup"></path>
        <path d="M11.23,1 L14.04,8 L13.04,8 L12.3,6.15 L9.22,6.15 L8.49,8 L7.49,8 L10.3,1 L11.24,1 L11.23,1 Z M10.75,2.17 L10.62,2.55 L9.52,5.3 L11.97,5.3 L10.86,2.55 L10.75,2.17 Z" id="Shape" opacity="0.6" fill="#000000" sketch:type="MSShapeGroup"></path>
        <path d="M4.78,3.1 L6.72,8 L5.86,8 L5.39,6.8 L3.32,6.8 L2.86,8 L1.97,8 L3.97,3.1 L4.81,3.1 L4.78,3.1 Z M4.35,4.1 L4.26,4.37 L3.58,6.12 L5.14,6.12 L4.44,4.34 L4.35,4.1 Z" id="Shape" opacity="0.6" fill="#000000" sketch:type="MSShapeGroup"></path>
        <path d="M216,1 C207.716309,1 201,7.71630859 201,16 C201,22.628418 205.2975,28.2497559 211.258477,30.2327734 C212.008301,30.3701172 212.282051,29.9068457 212.282051,29.5113379 C212.282051,29.1542676 212.268311,27.9714355 212.260986,26.7189941 C208.089844,27.6253516 207.208184,24.9501953 207.208184,24.9501953 C206.525215,23.2180176 205.542832,22.7565918 205.542832,22.7565918 C204.179619,21.826416 205.64625,21.8447266 205.64625,21.8447266 C207.152285,21.949082 207.945176,23.3901367 207.945176,23.3901367 C209.283691,25.6826172 211.457139,25.0197754 212.31041,24.6352539 C212.446758,23.668457 212.834941,23.0056152 213.262559,22.6320801 C209.932793,22.2530664 206.43,20.9658203 206.43,15.218125 C206.43,13.5793164 207.015029,12.2426758 207.972656,11.1925586 C207.819756,10.8116992 207.303398,9.28550781 208.120957,7.22101563 C208.120957,7.22101563 209.378906,6.81818359 212.246309,8.75910156 C213.441973,8.42494141 214.724648,8.26014648 215.999971,8.25463867 C217.274385,8.26014648 218.557939,8.42675781 219.755479,8.76091797 C222.617432,6.81818359 223.877197,7.22283203 223.877197,7.22283203 C224.69751,9.28916992 224.181152,10.8135156 224.027344,11.1925586 C224.988633,12.2426758 225.569092,13.5793457 225.569092,15.218125 C225.569092,20.9804688 222.060791,22.249375 218.719131,22.6210938 C219.259307,23.0861816 219.737197,23.9980469 219.737197,25.3969727 C219.737197,27.4019922 219.717041,29.0187988 219.717041,29.5131836 C219.717041,29.9123535 219.989854,30.3792578 220.749756,30.2327734 C226.706191,28.2460938 231,22.6247559 231,16 C231,7.71630859 224.283691,1 216,1 L216,1 Z" id="Shape" fill="#FFFFFF" sketch:type="MSShapeGroup"></path>
        <path d="M262.108696,19 C261.347826,19 261.165217,18.3612903 260.769565,10.2032258 C260.647826,7.73548387 260.495652,4.57096774 260.252174,2.88709677 C260.1,4.0483871 259.978261,5.90645161 259.886957,7.38709677 C259.552174,12.9612903 259.369565,14.3548387 258.456522,14.3548387 C257.482609,14.3548387 257.269565,13.0193548 257.056522,11.6258065 C256.965217,10.9870968 256.813043,9.94193548 256.6,9.70967742 C256.386957,9.76774194 256.204348,10.3483871 256.082609,10.7548387 C255.869565,11.4806452 255.626087,12.3225806 254.804348,12.3225806 C254.134783,12.3225806 253.830435,11.9741935 253.647826,11.7709677 C253.465217,11.5677419 253.373913,11.4516129 252.978261,11.4516129 L251.456522,11.4516129 C251.213043,11.4516129 251,11.2483871 251,11.016129 C251,10.783871 251.213043,10.5806452 251.456522,10.5806452 L252.978261,10.5806452 C253.8,10.5806452 254.104348,10.9580645 254.317391,11.1903226 C254.469565,11.3645161 254.530435,11.4516129 254.804348,11.4516129 C254.956522,11.3935484 255.13913,10.8129032 255.2,10.5225806 C255.443478,9.76774194 255.717391,8.83870968 256.630435,8.83870968 C257.573913,8.83870968 257.756522,10.0580645 257.969565,11.4806452 C258.06087,12.0032258 258.182609,12.9322581 258.365217,13.3096774 C258.669565,12.3806452 258.852174,9.36129032 258.973913,7.3 C259.278261,2.19032258 259.430435,1 260.252174,1 C261.043478,1 261.226087,1.72580645 261.652174,10.1451613 C261.773913,12.4096774 261.926087,15.283871 262.108696,16.9387097 C262.291304,15.6032258 262.413043,13.5129032 262.504348,11.8580645 C262.930435,5.44193548 263.113043,4.48387097 263.934783,4.48387097 C264.786957,4.48387097 264.93913,5.79032258 265.213043,9.56451613 C265.334783,11.1322581 265.517391,13.3967742 265.791304,14.1806452 C265.973913,13.6870968 266.095652,12.5258065 266.186957,11.7709677 C266.4,9.79677419 266.552174,8.25806452 267.586957,8.25806452 C268.591304,8.25806452 268.743478,9.4483871 268.895652,10.5806452 C268.986957,11.1903226 269.108696,12.3225806 269.413043,12.3225806 C269.717391,12.3225806 269.83913,11.7419355 269.96087,10.9870968 C270.113043,10.1451613 270.295652,9.12903226 271.23913,9.12903226 C272.182609,9.12903226 272.456522,10 272.63913,10.6387097 C272.76087,10.9870968 272.882609,11.4516129 273.065217,11.4516129 C273.33913,11.4516129 273.46087,11.2774194 273.704348,10.8709677 C273.917391,10.4935484 274.221739,10 274.891304,10 C275.43913,10 275.713043,10.2032258 275.926087,10.3483871 C276.13913,10.4935484 276.291304,10.5806452 276.717391,10.5806452 L278.543478,10.5806452 C278.786957,10.5806452 279,10.783871 279,11.016129 C279,11.2483871 278.786957,11.4516129 278.543478,11.4516129 L276.717391,11.4516129 C275.986957,11.4516129 275.652174,11.2193548 275.408696,11.0451613 C275.226087,10.9290323 275.134783,10.8709677 274.891304,10.8709677 C274.769565,10.8709677 274.678261,11.016129 274.495652,11.3064516 C274.252174,11.7129032 273.886957,12.3225806 273.065217,12.3225806 C272.213043,12.3225806 271.93913,11.4806452 271.756522,10.9 C271.573913,10.2903226 271.452174,10 271.23913,10 C271.056522,10 270.934783,10.7548387 270.873913,11.1322581 C270.721739,12.0032258 270.508696,13.1935484 269.413043,13.1935484 C268.317391,13.1935484 268.134783,11.8580645 267.982609,10.6967742 C267.921739,10.2032258 267.8,9.33225806 267.617391,9.15806452 C267.343478,9.47741935 267.191304,10.9580645 267.1,11.8580645 C266.886957,13.8032258 266.734783,15.2258065 265.76087,15.2258065 C264.817391,15.2258065 264.634783,13.7741935 264.3,9.62258065 C264.208696,8.46129032 264.086957,6.98064516 263.934783,6.08064516 C263.721739,7.38709677 263.569565,9.94193548 263.417391,11.916129 C263.052174,18.0709677 262.869565,19 262.108696,19 L262.108696,19 Z" id="Shape" fill="#1E1CF5" sketch:type="MSShapeGroup"></path>
    </g>
</svg>